<svg width="1440" height="315" viewBox="0 0 1440 315" fill="none" xmlns="http://www.w3.org/2000/svg">
<path d="M720 0H1080V293.714C1080 293.714 1017.77 346.664 965.918 285.538C914.062 224.411 916.875 345.836 855.352 266.984C793.828 188.132 720 293.714 720 293.714V0Z" fill="#E6F4FF"/>
<path d="M1080 0H1440V293.714C1440 293.714 1377.77 346.664 1325.92 285.538C1274.06 224.411 1276.88 345.836 1215.35 266.984C1153.83 188.132 1080 293.714 1080 293.714V0Z" fill="#E6F4FF"/>
<path d="M0 0H360V293.714C360 293.714 297.773 346.664 245.918 285.538C194.062 224.411 196.875 345.836 135.352 266.984C73.8281 188.132 0 293.714 0 293.714V0Z" fill="#E6F4FF"/>
<path d="M360 0H720V293.714C720 293.714 657.773 346.664 605.918 285.538C554.062 224.411 556.875 345.836 495.352 266.984C433.828 188.132 360 293.714 360 293.714V0Z" fill="#E6F4FF"/>
</svg>
