<svg width="24" height="24" viewBox="0 0 24 24" fill="none" xmlns="http://www.w3.org/2000/svg">
<path d="M12 3.35801C13.768 3.35801 15.464 3.98301 16.714 5.09401C17.964 6.20501 18.666 7.71301 18.666 9.28301C18.666 11.715 19.215 13.535 19.927 14.874C20.837 16.583 21.293 17.438 21.268 17.633C21.239 17.861 21.201 17.924 21.013 18.057C20.852 18.171 20.054 18.171 18.456 18.171H5.54399C3.94599 18.171 3.14799 18.171 2.98699 18.057C2.79899 17.924 2.76099 17.861 2.73199 17.633C2.70699 17.438 3.16299 16.583 4.07299 14.874C4.78499 13.535 5.33399 11.715 5.33399 9.28301C5.33399 7.71301 6.03599 6.20501 7.28699 5.09401C8.53599 3.98301 10.232 3.35801 12 3.35801ZM12 3.35801V0.889008M8.73299 21.875C9.60599 22.644 10.751 23.111 12.005 23.111C13.26 23.111 14.404 22.644 15.276 21.875" stroke="#464748" stroke-width="1.68" stroke-linecap="round" stroke-linejoin="round"/>
</svg>
