<svg width="24" height="24" viewBox="0 0 24 24" fill="none" xmlns="http://www.w3.org/2000/svg">
<path fill-rule="evenodd" clip-rule="evenodd" d="M12 6.39624C10.4324 6.39624 9.17579 7.66068 9.17579 9.22042C9.17579 10.726 10.352 11.9536 11.8422 12.0317C11.9449 12.0233 12.0544 12.0225 12.1607 12.0315C13.6445 11.9522 14.8145 10.7294 14.8242 9.21804C14.8229 7.66105 13.5573 6.39624 12 6.39624ZM7.50137 9.22042C7.50137 6.73924 9.50435 4.72183 12 4.72183C14.4829 4.72183 16.4986 6.73759 16.4986 9.22042C16.4986 9.22199 16.4986 9.22357 16.4986 9.22515C16.4849 11.6457 14.5811 13.6249 12.1625 13.7074C12.1145 13.709 12.0665 13.7065 12.0189 13.6999C12.0187 13.6999 12.0185 13.6999 12.0182 13.6999C12.0153 13.6997 12.0105 13.6995 12.0042 13.6995C11.9905 13.6995 11.9778 13.7004 11.9699 13.7014C11.926 13.7069 11.8817 13.7089 11.8375 13.7074C9.42321 13.6251 7.50137 11.6489 7.50137 9.22042Z" fill="#464748"/>
<path fill-rule="evenodd" clip-rule="evenodd" d="M6.91742 18.0541C6.05767 18.6332 5.57709 19.2958 5.38982 19.9256C7.18278 21.427 9.48137 22.3256 12 22.3256C14.5186 22.3256 16.8172 21.427 18.6102 19.9256C18.4228 19.2956 17.9419 18.6326 17.0814 18.0533C15.7305 17.1497 13.8935 16.6716 12.0084 16.6716C10.1241 16.6716 8.28068 17.1494 6.91742 18.0541ZM12.0084 14.9972C14.147 14.9972 16.3282 15.5347 18.0135 16.6623L18.0153 16.6635C19.3578 17.5669 20.2119 18.7931 20.3562 20.1496C20.3844 20.414 20.2852 20.676 20.0891 20.8556C17.954 22.8108 15.1199 24 12 24C8.88012 24 6.04604 22.8108 3.91088 20.8556C3.71478 20.676 3.61565 20.414 3.64377 20.1496C3.78808 18.7931 4.6422 17.5669 5.98471 16.6635C5.98609 16.6626 5.98748 16.6617 5.98887 16.6608C7.68401 15.5348 9.86947 14.9972 12.0084 14.9972Z" fill="#464748"/>
<path fill-rule="evenodd" clip-rule="evenodd" d="M0 11.9999C0 5.37256 5.37258 0 12 0C18.6274 0 24 5.37255 24 11.9999C24 18.6273 18.6274 23.9999 12 23.9999C5.37258 23.9999 0 18.6273 0 11.9999ZM12 1.67441C6.29734 1.67441 1.67442 6.29731 1.67442 11.9999C1.67442 17.7025 6.29734 22.3255 12 22.3255C17.7026 22.3255 22.3256 17.7025 22.3256 11.9999C22.3256 6.29731 17.7026 1.67441 12 1.67441Z" fill="#464748"/>
</svg>
