<svg width="20" height="20" viewBox="0 0 20 20" fill="none" xmlns="http://www.w3.org/2000/svg">
<path d="M5.83337 11.6667C5.83337 11.2065 6.20647 10.8334 6.66671 10.8334C7.12695 10.8334 7.50004 11.2065 7.50004 11.6667C7.50004 12.127 7.12695 12.5 6.66671 12.5C6.20647 12.5 5.83337 12.127 5.83337 11.6667Z" fill="#757576"/>
<path d="M6.66671 14.1666C6.20647 14.1666 5.83337 14.5397 5.83337 15C5.83337 15.4602 6.20647 15.8333 6.66671 15.8333C7.12695 15.8333 7.50004 15.4602 7.50004 15C7.50004 14.5397 7.12695 14.1666 6.66671 14.1666Z" fill="#757576"/>
<path d="M9.16663 11.6667C9.16663 11.2065 9.53971 10.8334 9.99996 10.8334C10.4602 10.8334 10.8333 11.2065 10.8333 11.6667C10.8333 12.127 10.4602 12.5 9.99996 12.5C9.53971 12.5 9.16663 12.127 9.16663 11.6667Z" fill="#757576"/>
<path d="M9.99996 14.1666C9.53971 14.1666 9.16663 14.5397 9.16663 15C9.16663 15.4602 9.53971 15.8333 9.99996 15.8333C10.4602 15.8333 10.8333 15.4602 10.8333 15C10.8333 14.5397 10.4602 14.1666 9.99996 14.1666Z" fill="#757576"/>
<path d="M12.5 11.6667C12.5 11.2065 12.8731 10.8334 13.3333 10.8334C13.7936 10.8334 14.1667 11.2065 14.1667 11.6667C14.1667 12.127 13.7936 12.5 13.3333 12.5C12.8731 12.5 12.5 12.127 12.5 11.6667Z" fill="#757576"/>
<path d="M13.3333 14.1666C12.8731 14.1666 12.5 14.5397 12.5 15C12.5 15.4602 12.8731 15.8333 13.3333 15.8333C13.7936 15.8333 14.1667 15.4602 14.1667 15C14.1667 14.5397 13.7936 14.1666 13.3333 14.1666Z" fill="#757576"/>
<path fill-rule="evenodd" clip-rule="evenodd" d="M4.99996 1.66671C4.99996 1.20647 5.37306 0.833374 5.83329 0.833374C6.29353 0.833374 6.66663 1.20647 6.66663 1.66671V2.50004H13.3333V1.66671C13.3333 1.20647 13.7064 0.833374 14.1666 0.833374C14.6269 0.833374 15 1.20647 15 1.66671V2.50004H15.8333C17.214 2.50004 18.3333 3.61933 18.3333 5.00004V16.6667C18.3333 18.0475 17.214 19.1667 15.8333 19.1667H4.16663C2.78592 19.1667 1.66663 18.0475 1.66663 16.6667V5.00004C1.66663 3.61933 2.78592 2.50004 4.16663 2.50004H4.99996V1.66671ZM13.3333 4.16671V5.00004C13.3333 5.46027 13.7064 5.83337 14.1666 5.83337C14.6269 5.83337 15 5.46027 15 5.00004V4.16671H15.8333C16.2935 4.16671 16.6666 4.53981 16.6666 5.00004V7.50004H3.33329V5.00004C3.33329 4.53981 3.70639 4.16671 4.16663 4.16671H4.99996V5.00004C4.99996 5.46027 5.37306 5.83337 5.83329 5.83337C6.29353 5.83337 6.66663 5.46027 6.66663 5.00004V4.16671H13.3333ZM3.33329 9.16671V16.6667C3.33329 17.127 3.70639 17.5 4.16663 17.5H15.8333C16.2935 17.5 16.6666 17.127 16.6666 16.6667V9.16671H3.33329Z" fill="#757576"/>
</svg>
