<svg width="24" height="24" viewBox="0 0 24 24" fill="none" xmlns="http://www.w3.org/2000/svg">
<path fill-rule="evenodd" clip-rule="evenodd" d="M0 10.8293C0 4.84843 4.84843 0 10.8293 0C16.8101 0 21.6585 4.84843 21.6585 10.8293C21.6585 13.2914 20.8356 15.5632 19.4516 17.382L23.5714 21.5018C24.1429 22.0733 24.1429 22.9999 23.5714 23.5714C22.9999 24.1429 22.0733 24.1429 21.5018 23.5714L17.382 19.4516C15.5632 20.8356 13.2914 21.6585 10.8293 21.6585C4.84843 21.6585 0 16.8101 0 10.8293ZM16.4172 16.4172C17.8489 14.9854 18.7317 13.0118 18.7317 10.8293C18.7317 6.46487 15.1937 2.92683 10.8293 2.92683C6.46487 2.92683 2.92683 6.46487 2.92683 10.8293C2.92683 15.1937 6.46487 18.7317 10.8293 18.7317C13.0118 18.7317 14.9854 17.8489 16.4172 16.4172C16.4172 16.4172 16.4172 16.4172 16.4172 16.4172C16.4172 16.4172 16.4172 16.4172 16.4172 16.4172Z" fill="#C6C6C6"/>
</svg>
