<svg width="16" height="17" viewBox="0 0 16 17" fill="none" xmlns="http://www.w3.org/2000/svg">
<g clip-path="url(#clip0_294_925)">
<path d="M8 0.5C6.41775 0.5 4.87104 0.969192 3.55544 1.84824C2.23985 2.72729 1.21447 3.97672 0.608967 5.43853C0.00346629 6.90034 -0.15496 8.50887 0.153721 10.0607C0.462403 11.6126 1.22433 13.038 2.34315 14.1569C3.46197 15.2757 4.88743 16.0376 6.43928 16.3463C7.99113 16.655 9.59966 16.4965 11.0615 15.891C12.5233 15.2855 13.7727 14.2602 14.6518 12.9446C15.5308 11.629 16 10.0823 16 8.5C16 6.37827 15.1571 4.34344 13.6569 2.84315C12.1566 1.34285 10.1217 0.5 8 0.5V0.5ZM8 15.1667C6.68146 15.1667 5.39253 14.7757 4.2962 14.0431C3.19987 13.3106 2.34539 12.2694 1.84081 11.0512C1.33622 9.83305 1.2042 8.49261 1.46144 7.1994C1.71867 5.90619 2.35361 4.71831 3.28596 3.78596C4.21831 2.85361 5.4062 2.21867 6.6994 1.96143C7.99261 1.7042 9.33305 1.83622 10.5512 2.3408C11.7694 2.84539 12.8106 3.69987 13.5431 4.7962C14.2757 5.89253 14.6667 7.18146 14.6667 8.5C14.6667 10.2681 13.9643 11.9638 12.714 13.214C11.4638 14.4643 9.76811 15.1667 8 15.1667Z" fill="#374957"/>
</g>
<defs>
<clipPath id="clip0_294_925">
<rect width="16" height="16" fill="white" transform="translate(0 0.5)"/>
</clipPath>
</defs>
</svg>
