<svg width="15" height="16" viewBox="0 0 15 16" fill="none" xmlns="http://www.w3.org/2000/svg">
<path d="M11.2174 3.99988C11.1005 3.8749 10.942 3.80469 10.7768 3.80469C10.6115 3.80469 10.453 3.8749 10.3362 3.99988L7.47823 7.05721L4.62029 3.99988C4.50343 3.8749 4.34494 3.80469 4.1797 3.80469C4.01445 3.80469 3.85597 3.8749 3.7391 3.99988C3.62227 4.1249 3.55664 4.29444 3.55664 4.47121C3.55664 4.64799 3.62227 4.81753 3.7391 4.94255L6.59704 7.99988L3.7391 11.0572C3.62227 11.1822 3.55664 11.3518 3.55664 11.5285C3.55664 11.7053 3.62227 11.8749 3.7391 11.9999C3.85597 12.1249 4.01445 12.1951 4.1797 12.1951C4.34494 12.1951 4.50343 12.1249 4.62029 11.9999L7.47823 8.94255L10.3362 11.9999C10.453 12.1249 10.6115 12.1951 10.7768 12.1951C10.942 12.1951 11.1005 12.1249 11.2174 11.9999C11.3342 11.8749 11.3998 11.7053 11.3998 11.5285C11.3998 11.3518 11.3342 11.1822 11.2174 11.0572L8.35942 7.99988L11.2174 4.94255C11.3342 4.81753 11.3998 4.64799 11.3998 4.47121C11.3998 4.29444 11.3342 4.1249 11.2174 3.99988V3.99988Z" fill="#F77D7D"/>
</svg>
