<svg width="132" height="118" viewBox="0 0 132 118" fill="none" xmlns="http://www.w3.org/2000/svg">
<path d="M89.4201 4.93942C89.4201 4.93942 71.3396 28.8923 42.4107 14.6046C13.4819 0.316866 -15.4471 38.9778 9.46393 62.5104C34.3749 86.0431 9.99766 98.9742 26.9212 113.397C46.1559 129.788 62.902 96.5488 78.17 104.113C111.867 120.807 136.831 114.198 131.206 94.8679C121.332 60.9359 108.706 58.7284 118.349 41.0789C127.992 23.4294 106.71 -13.2684 89.4201 4.93942Z" fill="#DEE9FF"/>
<path d="M79.5765 71.1873L78.1481 79.208L71.3445 117.336L59.0889 114.942L66.9471 70.8981L67.3207 68.7993L79.5765 71.1873Z" fill="#699CFF"/>
<path d="M109.759 52.0059L105.533 75.7016C105.521 75.7711 105.496 75.8373 105.459 75.8965C105.422 75.9557 105.374 76.0067 105.319 76.0467C105.263 76.0866 105.2 76.1147 105.134 76.1292C105.068 76.1438 105 76.1446 104.933 76.1316L45.562 64.5502L52.55 25.3638L97.6343 34.1584C105.806 35.752 111.233 43.741 109.759 52.0059Z" fill="#A2BDFF"/>
<path d="M65.231 44.0536L61.0381 67.5654L29.8738 61.4863L34.0666 37.9744C35.6103 29.3177 43.8384 23.6607 52.444 25.3394C61.0496 27.018 66.7747 35.3967 65.231 44.0536Z" fill="#699CFF"/>
<path d="M79.7394 55.0449C77.4429 54.5969 75.9276 52.2625 76.3601 49.8383C76.7926 47.4141 79.0102 45.8074 81.3068 46.2557C82.0389 46.3995 82.7215 46.7436 83.2852 47.2529C83.8489 47.7621 84.2735 48.4185 84.516 49.1551L113.525 54.8139L112.742 59.2087L83.7323 53.5499C83.2523 54.1457 82.63 54.5979 81.9286 54.8605C81.2272 55.1231 80.4719 55.1868 79.7394 55.0449Z" fill="#418DF9"/>
<path d="M64.1972 44.4861L60.112 67.3937L30.7542 61.6669L34.8395 38.7592C36.3436 30.3251 44.1351 24.7695 52.242 26.3509C60.3489 27.9324 65.7012 36.0519 64.1972 44.4861Z" fill="#418DF9"/>
<path d="M80.562 52.8246C81.7424 52.8246 82.6993 51.8238 82.6993 50.5893C82.6993 49.3548 81.7424 48.354 80.562 48.354C79.3817 48.354 78.4248 49.3548 78.4248 50.5893C78.4248 51.8238 79.3817 52.8246 80.562 52.8246Z" fill="white"/>
<path d="M113.861 54.798L111.298 69.1677C111.287 69.2296 111.253 69.2843 111.203 69.3199C111.154 69.3555 111.093 69.369 111.033 69.3575L104.297 68.0435C104.286 68.0412 104.275 68.0342 104.269 68.0239C104.262 68.0137 104.259 68.001 104.261 67.9888L106.857 53.4319C106.86 53.4197 106.866 53.4089 106.876 53.4018C106.886 53.3948 106.898 53.3921 106.91 53.3944L113.825 54.7434C113.837 54.7456 113.847 54.7527 113.854 54.7629C113.86 54.7732 113.863 54.7858 113.861 54.798Z" fill="#699CFF"/>
<path d="M40.4695 53.4461C40.7531 55.6285 43.0429 58.2226 43.0429 58.2226C39.5538 58.4812 37.6642 56.4175 36.8512 55.1635C35.8459 55.4673 34.8128 55.6591 33.7689 55.7356C26.6059 56.2666 20.4396 51.3755 19.9942 44.8055C19.5489 38.2354 24.994 32.4834 32.1571 31.9525C39.3201 31.4216 45.486 36.3124 45.9313 42.8826C46.2209 47.1561 44.0161 51.0842 40.4695 53.4461Z" fill="white"/>
<path d="M61.0683 67.58C60.744 68.4387 54.8121 94.0204 35.6163 90.2759C14.567 86.5488 29.7924 61.479 29.7924 61.479L61.0683 67.58Z" fill="#A2BDFF"/>
<path d="M32.9624 46.098C33.946 46.098 34.7434 45.264 34.7434 44.2353C34.7434 43.2065 33.946 42.3726 32.9624 42.3726C31.9788 42.3726 31.1814 43.2065 31.1814 44.2353C31.1814 45.264 31.9788 46.098 32.9624 46.098Z" fill="#699CFF"/>
<path d="M24.9892 45.286C25.9788 45.286 26.781 44.447 26.781 43.412C26.781 42.3771 25.9788 41.5381 24.9892 41.5381C23.9997 41.5381 23.1975 42.3771 23.1975 43.412C23.1975 44.447 23.9997 45.286 24.9892 45.286Z" fill="#699CFF"/>
<path d="M40.8591 46.8919C41.8486 46.8919 42.6508 46.0529 42.6508 45.018C42.6508 43.983 41.8486 43.144 40.8591 43.144C39.8696 43.144 39.0674 43.983 39.0674 45.018C39.0674 46.0529 39.8696 46.8919 40.8591 46.8919Z" fill="#699CFF"/>
<path d="M79.5764 71.1873L78.148 79.208L66.947 70.8981L67.3207 68.7993L79.5764 71.1873Z" fill="#418DF9"/>
</svg>
