<svg width="20" height="20" viewBox="0 0 20 20" fill="none" xmlns="http://www.w3.org/2000/svg">
<path d="M19.5846 5.42252C19.4518 5.28864 19.2939 5.18237 19.1198 5.10985C18.9457 5.03734 18.759 5 18.5705 5C18.3819 5 18.1952 5.03734 18.0211 5.10985C17.8471 5.18237 17.6891 5.28864 17.5563 5.42252L11.0142 11.9646C10.8814 12.0985 10.7234 12.2048 10.5493 12.2773C10.3753 12.3498 10.1886 12.3871 10 12.3871C9.81143 12.3871 9.62473 12.3498 9.45067 12.2773C9.2766 12.2048 9.11862 12.0985 8.98583 11.9646L2.44371 5.42252C2.31092 5.28864 2.15294 5.18237 1.97887 5.10985C1.80481 5.03734 1.61811 5 1.42954 5C1.24097 5 1.05427 5.03734 0.880208 5.10985C0.706143 5.18237 0.54816 5.28864 0.415371 5.42252C0.149328 5.69015 0 6.05218 0 6.42955C0 6.80691 0.149328 7.16894 0.415371 7.43657L6.97177 13.993C7.77525 14.7954 8.86441 15.2462 10 15.2462C11.1356 15.2462 12.2247 14.7954 13.0282 13.993L19.5846 7.43657C19.8507 7.16894 20 6.80691 20 6.42955C20 6.05218 19.8507 5.69015 19.5846 5.42252V5.42252Z" fill="#A8A8A8"/>
</svg>
