<svg width="20" height="20" viewBox="0 0 20 20" fill="none" xmlns="http://www.w3.org/2000/svg">
<g clip-path="url(#clip0_294_1595)">
<path d="M5.83334 11.6667C5.83334 11.2065 6.20644 10.8334 6.66667 10.8334C7.12691 10.8334 7.5 11.2065 7.5 11.6667C7.5 12.127 7.12691 12.5 6.66667 12.5C6.20644 12.5 5.83334 12.127 5.83334 11.6667Z" fill="#ABABB6"/>
<path d="M6.66667 14.1666C6.20644 14.1666 5.83334 14.5397 5.83334 15C5.83334 15.4602 6.20644 15.8333 6.66667 15.8333C7.12691 15.8333 7.5 15.4602 7.5 15C7.5 14.5397 7.12691 14.1666 6.66667 14.1666Z" fill="#ABABB6"/>
<path d="M9.16666 11.6667C9.16666 11.2065 9.53975 10.8334 10 10.8334C10.4602 10.8334 10.8333 11.2065 10.8333 11.6667C10.8333 12.127 10.4602 12.5 10 12.5C9.53975 12.5 9.16666 12.127 9.16666 11.6667Z" fill="#ABABB6"/>
<path d="M10 14.1666C9.53975 14.1666 9.16666 14.5397 9.16666 15C9.16666 15.4602 9.53975 15.8333 10 15.8333C10.4602 15.8333 10.8333 15.4602 10.8333 15C10.8333 14.5397 10.4602 14.1666 10 14.1666Z" fill="#ABABB6"/>
<path d="M12.5 11.6667C12.5 11.2065 12.8731 10.8334 13.3333 10.8334C13.7936 10.8334 14.1667 11.2065 14.1667 11.6667C14.1667 12.127 13.7936 12.5 13.3333 12.5C12.8731 12.5 12.5 12.127 12.5 11.6667Z" fill="#ABABB6"/>
<path d="M13.3333 14.1666C12.8731 14.1666 12.5 14.5397 12.5 15C12.5 15.4602 12.8731 15.8333 13.3333 15.8333C13.7936 15.8333 14.1667 15.4602 14.1667 15C14.1667 14.5397 13.7936 14.1666 13.3333 14.1666Z" fill="#ABABB6"/>
<path fill-rule="evenodd" clip-rule="evenodd" d="M3.82001 0.909091C3.82001 0.407018 4.26773 0 4.82001 0C5.37229 0 5.82001 0.407018 5.82001 0.909091V1.81818H13.82V0.909091C13.82 0.407018 14.2677 0 14.82 0C15.3723 0 15.82 0.407018 15.82 0.909091V1.81818H16.82C18.4769 1.81818 19.82 3.03923 19.82 4.54545V17.2727C19.82 18.779 18.4769 20 16.82 20H2.82001C1.16316 20 -0.179993 18.779 -0.179993 17.2727V4.54545C-0.179993 3.03923 1.16316 1.81818 2.82001 1.81818H3.82001V0.909091ZM13.82 3.63636V4.54545C13.82 5.04753 14.2677 5.45455 14.82 5.45455C15.3723 5.45455 15.82 5.04753 15.82 4.54545V3.63636H16.82C17.3723 3.63636 17.82 4.04338 17.82 4.54545V7.27273H1.82001V4.54545C1.82001 4.04338 2.26773 3.63636 2.82001 3.63636H3.82001V4.54545C3.82001 5.04753 4.26773 5.45455 4.82001 5.45455C5.37229 5.45455 5.82001 5.04753 5.82001 4.54545V3.63636H13.82ZM1.82001 9.09091V17.2727C1.82001 17.7748 2.26773 18.1818 2.82001 18.1818H16.82C17.3723 18.1818 17.82 17.7748 17.82 17.2727V9.09091H1.82001Z" fill="#ABABB6"/>
</g>
<defs>
<clipPath id="clip0_294_1595">
<rect width="20" height="20" fill="white"/>
</clipPath>
</defs>
</svg>
