<svg width="162" height="96" viewBox="0 0 162 96" fill="none" xmlns="http://www.w3.org/2000/svg">
<path opacity="0.53" d="M14.7629 40.0684C16.8544 38.2889 24.1257 38.4632 28.38 38.4632C32.6344 38.4632 41.0263 38.6514 43.3356 41.5794C45.645 44.5075 39.2329 47.6255 29.3072 47.6255C19.3816 47.6255 8.55306 45.3562 14.7629 40.0684Z" fill="#99ADF9"/>
<path d="M132.018 48.6626C132.018 48.6626 147.328 48.9903 152.849 49.9227C158.371 50.8551 165.398 57.6436 159.249 64.7912C153.1 71.9387 143.995 71.1039 118.187 71.1039C122.607 56.9291 132.018 48.6626 132.018 48.6626Z" fill="#99ADF9"/>
<path d="M34.2203 51.9829C34.2203 51.9829 25.6575 50.5782 13.8112 52.3733C6.53296 53.4766 -0.618058 57.3649 0.042492 62.9299C1.00805 71.0848 20.4707 67.9843 25.6628 72.4792C30.8548 76.974 19.5401 78.2864 16.3663 82.9922C13.1925 87.6979 16.0787 94.0838 30.9071 95.0546C45.7355 96.0254 91.8067 96.5204 102.45 95.1853C113.094 93.8503 119.632 81.3852 102.684 74.6821C76.2219 69.2914 34.2203 51.9829 34.2203 51.9829Z" fill="#99ADF9"/>
<path d="M139.626 55.1758C139.626 68.9323 119.159 80.085 81.0428 80.085C42.926 80.085 23.5278 68.9306 23.5278 55.1758C23.5278 41.421 42.9365 30.2666 81.0428 30.2666C119.149 30.2666 139.626 41.4193 139.626 55.1758Z" fill="#F0F6FF"/>
<path opacity="0.36" d="M55.0755 43.3435C55.0755 43.3435 34.1383 45.4524 32.6324 73.4343C40.9146 88.24 73.5412 84.7281 73.5412 84.7281C73.5412 84.7281 72.3055 56.3628 83.5105 40.9052C106.795 41.6582 123.36 41.4281 129.634 72.7999C142.434 66.2745 143.418 52.0718 143.418 52.0718C143.418 52.0718 137.144 31.9939 127.983 29.7351C118.823 27.4764 104.015 30.2371 104.015 30.2371L55.0755 43.3435Z" fill="#FF97C9"/>
<g style="mix-blend-mode:multiply" opacity="0.64">
<path d="M121.477 45.0549C121.477 51.7876 107.409 57.2463 81.2169 57.2463C55.025 57.2463 41.6763 51.7876 41.6763 45.0549C41.6763 38.3222 55.018 32.8652 81.2169 32.8652C107.416 32.8652 121.477 38.3257 121.477 45.0549Z" fill="#E1ECFF"/>
</g>
<path d="M99.3046 46.8656C99.3046 46.8656 101.87 49.7657 102.205 52.1081C102.539 54.4506 102.26 57.3507 104.993 58.2988C107.726 59.2469 114.928 59.8047 117.152 56.9603C119.376 54.1159 117.877 49.5426 113.861 46.0848C108.458 41.2884 102.316 40.8979 102.316 40.8979L99.3046 46.8656Z" fill="#FEC272"/>
<g style="mix-blend-mode:multiply" opacity="0.45">
<path d="M98.5028 52.4672C98.5028 52.4672 110.006 51.5784 109.744 39.4131C100.943 39.8488 96.4236 45.9994 96.4236 45.9994L98.5028 52.4672Z" fill="#FEC272"/>
</g>
<path d="M60.9647 46.8656C60.9647 46.8656 63.5302 49.7657 63.8649 52.1081C64.1995 54.4506 63.9206 57.3507 66.6535 58.2988C69.3863 59.2469 76.5879 59.8047 78.8118 56.9603C81.0357 54.1159 79.5368 49.5426 75.5212 46.0848C70.1183 41.2884 63.9764 40.8979 63.9764 40.8979L60.9647 46.8656Z" fill="#FEC272"/>
<g style="mix-blend-mode:multiply" opacity="0.45">
<path d="M63.6191 43.711C63.6191 43.711 69.578 53.5914 80.3316 47.8939C75.9901 40.2253 68.4643 38.9478 68.4643 38.9478L63.6191 43.711Z" fill="#FEC272"/>
</g>
<path d="M94.7609 4.20703C96.3295 4.25932 101.316 3.89506 103.397 10.0335C105.478 16.1719 107.09 20.6476 109.9 24.6527C112.709 28.6578 115.571 35.9413 109.9 41.0357C104.228 46.1302 97.5722 44.891 94.503 43.3799C91.4338 41.8688 87.7894 39.3713 88.6748 30.8434C89.5602 22.3155 92.2651 17.1095 92.5771 12.4264C92.8891 7.74333 93.3666 6.18345 94.7609 4.20703Z" fill="#FF8D76"/>
<path d="M80.1207 0.0243073C88.2617 -0.306839 94.8777 2.78503 97.8894 6.88427C100.901 10.9835 102.658 20.9388 103.034 23.9087C103.411 26.8785 104.749 28.4681 106.171 30.434C107.697 32.5429 110.313 39.0508 107.51 43.401C104.707 47.7512 100.141 48.8667 95.2837 46.4824C90.3898 48.3996 86.2313 49.3826 78.3256 48.051C70.4199 46.7194 62.8297 40.0076 60.8968 26.523C59.7814 18.7149 59.7674 9.1779 63.5111 4.21418C69.7558 2.50268 72.4137 0.331054 80.1207 0.0243073Z" fill="#FEC272"/>
<path d="M63.5303 4.20703C61.8571 4.2628 56.503 3.8724 54.2722 10.4535C52.0413 17.0346 50.3176 21.831 47.3006 26.1254C44.2837 30.4199 41.2215 38.228 47.3006 43.6936C53.3798 49.1593 60.5186 47.8208 63.8092 46.2034C67.0997 44.586 71.0038 41.9089 70.0556 32.7623C69.1075 23.6157 66.2074 18.0385 65.8727 13.019C65.5381 7.99953 65.0362 6.32637 63.5303 4.20703Z" fill="#FF8D76"/>
<path d="M80.5896 27.9101C81.8371 27.9101 82.8484 26.8988 82.8484 25.6513C82.8484 24.4039 81.8371 23.3926 80.5896 23.3926C79.3421 23.3926 78.3308 24.4039 78.3308 25.6513C78.3308 26.8988 79.3421 27.9101 80.5896 27.9101Z" fill="#1C3177"/>
<path d="M98.9386 27.9101C100.186 27.9101 101.197 26.8988 101.197 25.6513C101.197 24.4039 100.186 23.3926 98.9386 23.3926C97.6911 23.3926 96.6798 24.4039 96.6798 25.6513C96.6798 26.8988 97.6911 27.9101 98.9386 27.9101Z" fill="#1C3177"/>
<path d="M77.0533 19.9157C76.879 19.0966 78.9112 18.0892 79.9464 17.3328C80.9817 16.5764 82.5416 16.2871 83.3625 17.6674C84.1834 19.0478 81.3704 20.3462 80.3333 20.5676C79.2963 20.7889 77.238 20.8133 77.0533 19.9157Z" fill="#FF8D76"/>
<path d="M101.195 19.6085C101.263 18.8539 99.4909 18.0556 98.5654 17.4282C97.64 16.8008 96.3189 16.6265 95.7576 17.9301C95.1964 19.2338 97.6469 20.2499 98.5271 20.3928C99.4072 20.5357 101.12 20.4364 101.195 19.6085Z" fill="#FF8D76"/>
<path d="M91.5697 33.0689C91.73 32.1277 98.3669 31.814 98.9386 33.0689C99.5102 34.3238 97.7186 37.5446 95.8781 37.5446C94.0376 37.5446 91.1514 35.5368 91.5697 33.0689Z" fill="#1C3177"/>
<path d="M96.0541 34.8677C96.1229 36.6561 96.0412 38.4471 95.8101 40.2218" stroke="#1C3177" stroke-width="7" stroke-miterlimit="10" stroke-linecap="round"/>
<g style="mix-blend-mode:multiply">
<path d="M70.338 58.3055C70.338 58.3055 71.1188 56.2141 70.1637 54.3335" stroke="#FEC272" stroke-width="7" stroke-miterlimit="10" stroke-linecap="round"/>
</g>
<g style="mix-blend-mode:multiply">
<path d="M76.499 57.8872C76.7603 56.684 76.5939 55.4273 76.0284 54.3335" stroke="#FEC272" stroke-width="7" stroke-miterlimit="10" stroke-linecap="round"/>
</g>
<g style="mix-blend-mode:multiply">
<path d="M108.678 58.3055C108.678 58.3055 109.459 56.2141 108.503 54.3335" stroke="#FEC272" stroke-width="7" stroke-miterlimit="10" stroke-linecap="round"/>
</g>
<g style="mix-blend-mode:multiply">
<path d="M114.839 57.8872C115.101 56.6842 114.935 55.4273 114.37 54.3335" stroke="#FEC272" stroke-width="7" stroke-miterlimit="10" stroke-linecap="round"/>
</g>
<path opacity="0.53" d="M125.226 79.5989C127.318 77.8177 134.587 77.992 138.843 77.992C143.099 77.992 151.49 78.1819 153.799 81.11C156.108 84.038 149.696 87.1543 139.771 87.1543C129.845 87.1543 119.023 84.8868 125.226 79.5989Z" fill="#99ADF9"/>
</svg>
