<svg width="221" height="180" viewBox="0 0 221 180" fill="none" xmlns="http://www.w3.org/2000/svg">
<path d="M149.205 125.911H143.612C144.709 124.393 145.389 122.3 145.389 120.05C145.389 115.287 142.461 111.467 138.802 111.467H6.58721C2.92765 111.467 0 115.34 0 120.05C0 124.812 2.92765 128.632 6.58721 128.632H10.3513C10.9264 128.632 11.4492 128.789 11.8674 129.051C10.9264 130.516 10.3513 132.452 10.3513 134.493C10.3513 139.255 13.279 143.076 16.9385 143.076H20.7026C22.7938 143.076 24.4668 145.326 24.4668 148.1V148.152C24.4668 152.914 27.3944 156.734 31.054 156.734H125C128.66 156.734 131.587 152.862 131.587 148.152V148.1C131.587 145.378 133.26 143.076 135.351 143.076H149.205C152.865 143.076 155.793 139.203 155.793 134.493C155.793 129.731 152.865 125.911 149.205 125.911Z" fill="#E1ECFF"/>
<path d="M139.691 79.1783L69.2705 52.3843L68.2772 101.472L130.594 130.673C132.215 131.458 134.097 130.359 134.306 128.58L139.691 79.1783Z" fill="#FC7EC1"/>
<path d="M28.6495 118.532L68.2773 101.472L69.2706 52.3843L22.0623 72.4798L24.8853 116.229C25.0422 118.113 26.9242 119.265 28.6495 118.532Z" fill="#F969BB"/>
<path d="M69.2705 52.3843H54.8936C52.1751 52.3843 49.5088 52.96 47.0517 54.059L7.78986 71.4332C6.74427 71.9042 7.11023 73.4741 8.26037 73.3695L22.0099 72.4798L69.2705 52.3843Z" fill="#FF97C9"/>
<path d="M69.2705 52.3843L139.691 79.1783H147.271C148.16 79.1783 148.369 77.9223 147.533 77.6084L81.5039 53.1693C80.1446 52.646 78.6808 52.3843 77.217 52.3843H69.2705Z" fill="#FF97C9"/>
<path d="M86.2088 113.037L81.0331 127.847C81.0331 127.847 71.3092 117.956 63.1013 100.948C61.0101 96.6571 60.2259 92.1043 60.1737 87.7607C60.0168 76.8233 64.8265 67.2466 66.97 67.0372C69.218 66.8279 66.2904 75.7767 67.0745 84.7778C67.3359 87.7607 67.9633 90.6913 69.3226 93.3602C76.328 107.124 86.2088 113.037 86.2088 113.037Z" fill="#FF8D76"/>
<path d="M67.0222 84.7779C65.4015 85.7722 62.6307 87.2375 60.1213 87.7085C59.9645 76.7711 64.7742 67.1943 66.9176 66.985C69.1656 66.828 66.2903 75.7768 67.0222 84.7779Z" fill="#FFD3B3"/>
<path d="M22.0623 72.4798L24.8853 116.125C25.0422 118.584 26.4537 120.782 28.6495 121.934L89.6073 154.222L90.5483 101.576L22.0623 72.4798Z" fill="#FF97C9"/>
<path d="M23.8398 100.059L73.8189 124.445C76.4329 125.701 79.5174 124.916 81.1903 122.562L90.4961 109.269V101.576L22.01 72.4798L23.8398 100.059Z" fill="#FC7EC1"/>
<path d="M15.0043 91.8427L74.446 119.893C76.1713 120.73 78.2102 120.154 79.308 118.532L90.6004 101.576L22.1143 72.4798L13.436 86.2955C12.129 88.2841 12.9132 90.8484 15.0043 91.8427Z" fill="#FF97C9"/>
<path d="M129.758 134.336L89.6072 154.222L90.5482 101.576L139.691 79.1783L134.411 127.69C134.097 130.568 132.319 133.028 129.758 134.336Z" fill="#FC7EC1"/>
<path d="M90.5481 109.269L96.0897 121.306C97.449 124.236 100.952 125.44 103.827 124.027L136.659 107.438L139.743 79.2306L90.6004 101.629V109.269H90.5481Z" fill="#F969BB"/>
<path d="M100.115 118.532L90.5481 101.576L139.691 79.1783L148.631 94.1976C149.519 95.6629 148.944 97.5992 147.428 98.3318L103.984 119.683C102.572 120.364 100.899 119.84 100.115 118.532Z" fill="#FF97C9"/>
<path d="M151.088 50.5004C150.983 52.5937 148.631 64.5777 136.868 74.6778C125.889 84.0975 111.042 91.267 111.042 91.267L110.205 69.1829C110.205 69.1829 123.693 65.2057 131.587 58.3502C139.482 51.4947 142.253 44.7439 144.239 43.9065C145.076 43.5402 145.808 43.5926 146.33 43.6972C147.062 43.8542 147.48 44.2729 147.48 44.2729C147.48 44.2729 147.533 44.2729 147.637 44.2205C148.003 44.1159 148.892 44.0112 149.728 44.9532C150.304 45.5812 150.147 47.4128 150.147 47.4128C150.147 47.4128 150.774 48.0408 150.931 49.3491C151.088 49.7154 151.14 50.0817 151.088 50.5004Z" fill="#FEA691"/>
<path d="M140.483 60.0632C142.246 61.1101 144.726 60.1857 146.022 57.9984C147.318 55.8111 146.94 53.1892 145.177 52.1422C143.414 51.0952 140.934 52.0197 139.638 54.207C138.341 56.3943 138.72 59.0162 140.483 60.0632Z" fill="#FFD3B3"/>
<path d="M147.742 44.2727C147.638 44.7437 147.428 45.5287 146.958 46.68C146.121 48.6686 145.494 49.5583 145.18 49.6629C144.396 49.9769 144.292 48.878 145.076 47.3603C145.651 46.1567 146.174 44.4297 146.383 43.7494C147.115 43.9064 147.533 44.3251 147.533 44.3251C147.533 44.3251 147.638 44.2727 147.742 44.2727Z" fill="#FF8D76"/>
<path d="M151.088 49.4014C150.983 49.6107 150.931 49.8201 150.826 50.0817C149.937 52.0703 149.258 52.9077 148.944 53.0123C148.16 53.274 148.108 52.2273 148.892 50.7097C149.728 49.1921 150.303 47.4651 150.303 47.4651C150.303 47.4651 150.879 48.0931 151.088 49.4014Z" fill="#FF8D76"/>
<path d="M111.669 91.0577C111.408 91.0577 111.146 90.9007 111.042 90.639C110.885 90.2727 111.042 89.854 111.408 89.697C111.512 89.6447 124.007 84.2022 134.62 75.4628C148.056 64.4207 149.729 53.3263 149.729 53.2217C149.781 52.8553 150.147 52.5413 150.513 52.5937C150.879 52.646 151.192 53.0123 151.14 53.3787C151.088 53.8496 149.415 65.0487 135.509 76.5094C124.739 85.3535 112.14 90.9007 111.983 90.953C111.878 91.0053 111.774 91.0577 111.669 91.0577Z" fill="#FF8D76"/>
<path d="M99.6444 27.2649C99.6444 27.2649 104.872 15.3856 107.957 14.8099C110.989 14.2343 112.557 21.7178 113.812 27.9453C115.119 34.1728 115.433 39.3536 115.433 39.3536L99.6444 27.2649Z" fill="#FEA691"/>
<path d="M102.363 27.2126C102.363 27.2126 105.813 19.4675 107.8 19.1012C109.787 18.7348 110.78 23.654 111.617 27.6836C112.453 31.7655 112.714 35.1147 112.714 35.1147L102.363 27.2126Z" fill="#FFD3B3"/>
<path d="M88.5613 27.2649C88.5613 27.2649 83.3334 15.3856 80.2489 14.8099C77.2167 14.2343 75.6483 21.7178 74.3936 27.9453C73.1389 34.1728 72.7729 39.3536 72.7729 39.3536L88.5613 27.2649Z" fill="#FEA691"/>
<path d="M85.8428 27.2126C85.8428 27.2126 82.3923 19.4675 80.4057 19.1012C78.4191 18.7348 77.4258 23.654 76.5893 27.6836C75.7529 31.7655 75.4915 35.1147 75.4915 35.1147L85.8428 27.2126Z" fill="#FFD3B3"/>
<path d="M116.949 59.9201L103.252 59.5538L83.4379 59.0305L70.734 58.7165C70.734 58.7165 70.1589 40.8713 75.3346 32.2888C78.0531 27.736 83.1242 24.5437 88.7181 23.2354C91.5412 22.5551 94.5211 22.3458 97.3965 22.7121C101.161 23.1831 104.768 24.596 107.591 27.108C116.74 35.2194 115.799 42.7553 116.374 48.9828C116.949 55.2103 116.949 59.9201 116.949 59.9201Z" fill="#FEA691"/>
<path d="M103.252 59.5538L83.4381 59.0305C84.4837 56.3616 86.3135 50.8144 87.3591 43.2786C88.4047 35.9521 88.6138 27.7883 88.6661 23.2354C91.4891 22.5551 94.4691 22.3458 97.3444 22.7121C97.3967 26.951 97.7104 34.3298 98.9651 42.5982C100.377 51.8087 102.311 57.2512 103.252 59.5538Z" fill="#FFD3B3"/>
<path d="M118.831 65.101C118.831 73.7358 107.643 80.7483 93.8416 80.7483C80.0398 80.7483 68.8521 73.7358 68.8521 65.101C68.8521 54.373 80.0398 49.4538 93.8416 49.4538C107.643 49.4538 118.831 54.8963 118.831 65.101Z" fill="#FFD3B3"/>
<path d="M87.5682 55.5242C88.9274 53.588 99.0173 52.9076 100.429 55.0532C101.84 57.1465 98.1286 61.6994 94.5213 61.6994C90.914 61.6994 85.7384 58.0885 87.5682 55.5242Z" fill="#413F4C"/>
<path d="M76.3802 31.7655C76.2234 31.7655 76.0666 31.7132 75.962 31.6085C75.6483 31.3992 75.596 30.9282 75.8052 30.6142C75.8574 30.5096 77.5827 28.2593 80.5626 26.323C84.1176 23.9681 85.9474 23.4971 85.9997 23.4971C86.3656 23.3924 86.7838 23.6017 86.8361 24.0204C86.9407 24.3867 86.7316 24.8054 86.3133 24.8577C86.3133 24.8577 84.5881 25.3287 81.2945 27.5266C78.5237 29.3583 76.8507 31.5039 76.8507 31.5039C76.7985 31.6609 76.5893 31.7655 76.3802 31.7655Z" fill="#FF8D76"/>
<path d="M110.885 31.7655C111.042 31.7655 111.198 31.7132 111.303 31.6085C111.617 31.3992 111.669 30.9282 111.46 30.6142C111.408 30.5096 109.682 28.2593 106.702 26.323C103.147 23.9681 101.318 23.4971 101.265 23.4971C100.899 23.3924 100.481 23.6017 100.429 24.0204C100.324 24.3867 100.533 24.8054 100.952 24.8577C100.952 24.8577 102.677 25.3287 105.97 27.5266C108.741 29.3583 110.414 31.5039 110.414 31.5039C110.467 31.6609 110.676 31.7655 110.885 31.7655Z" fill="#FF8D76"/>
<path d="M88.875 69.3399C88.875 69.3399 92.9005 68.9213 94.8348 65.7813C97.1351 68.9736 100.481 68.2409 100.481 68.2409C100.481 68.2409 101.161 74.5208 95.4622 74.9918C89.4501 75.5151 88.875 69.3399 88.875 69.3399Z" fill="#FF6EA9"/>
<path d="M94.7825 72.9508C94.3643 72.8985 93.9983 72.5322 94.0506 72.1135C94.1029 70.0202 93.946 66.3047 93.946 66.2523C93.946 65.7813 94.2597 65.415 94.7302 65.415C95.1485 65.415 95.5667 65.729 95.5667 66.2C95.5667 66.357 95.7236 70.0726 95.6713 72.2182C95.619 72.5845 95.253 72.9508 94.7825 72.9508C94.7825 72.9508 94.8348 72.9508 94.7825 72.9508Z" fill="#EA4E95"/>
<path d="M88.2478 70.1772C85.7906 70.1772 83.9086 69.2875 83.8563 69.2352C83.3858 69.0259 83.2289 68.4502 83.438 67.9792C83.6472 67.5083 84.2222 67.3513 84.6928 67.5606C84.9019 67.6653 90.3389 70.2819 94.1031 65.258C94.2599 64.9963 94.5736 64.8917 94.835 64.8917C95.1486 64.8917 95.41 65.0487 95.5669 65.3103C98.0763 68.9212 103.147 67.0896 103.356 67.0373C103.827 66.8803 104.35 67.0896 104.559 67.5606C104.716 68.0316 104.507 68.5549 104.036 68.7642C101.945 69.5492 97.6058 70.1249 94.835 67.2989C92.6915 69.5492 90.2866 70.1772 88.2478 70.1772Z" fill="#413F4C"/>
<path d="M104.82 48.4594C106.091 48.4594 107.121 47.2411 107.121 45.7381C107.121 44.2352 106.091 43.0169 104.82 43.0169C103.55 43.0169 102.52 44.2352 102.52 45.7381C102.52 47.2411 103.55 48.4594 104.82 48.4594Z" fill="#413F4C"/>
<path d="M81.6082 48.4594C82.8786 48.4594 83.9085 47.2411 83.9085 45.7381C83.9085 44.2352 82.8786 43.0169 81.6082 43.0169C80.3377 43.0169 79.3079 44.2352 79.3079 45.7381C79.3079 47.2411 80.3377 48.4594 81.6082 48.4594Z" fill="#413F4C"/>
<path d="M100.952 37.3651C101.37 35.9521 103.879 36.1091 105.709 36.7371C107.539 37.3651 109.003 38.5687 108.585 39.3013C108.166 40.0863 100.115 40.0863 100.952 37.3651Z" fill="#FFD3B3"/>
<path d="M84.5883 37.3127C84.1178 35.8998 81.6084 36.1091 79.7786 36.7894C77.9488 37.4697 76.5373 38.6733 77.0078 39.406C77.4783 40.1386 85.5294 39.9816 84.5883 37.3127Z" fill="#FFD3B3"/>
<path d="M218.842 140.197L192.127 149.46L179.789 153.751L176.809 154.798L155.061 162.334C151.976 163.433 148.526 162.648 146.121 160.398L143.35 157.729C141.782 156.211 141.886 153.751 143.298 152.338C143.664 151.972 144.134 151.658 144.657 151.501L208.334 129.312C210.216 128.684 212.255 129.051 213.718 130.359L219.626 135.488C219.835 135.645 219.992 135.854 220.149 136.063C221.194 137.529 220.619 139.569 218.842 140.197Z" fill="#BBCBFF"/>
<path d="M203.158 170.027L173.254 179.603C170.483 180.493 167.451 179.865 165.255 177.929L162.485 175.469C160.968 174.161 160.864 172.015 161.857 170.55C162.328 169.87 163.007 169.346 163.844 169.085L183.658 163.119C183.815 163.067 183.919 163.014 184.024 162.909C184.651 162.439 184.703 161.549 184.076 160.973L176.809 154.746L174.457 152.757L174.038 152.391C171.738 150.454 172.574 146.687 175.502 145.954L185.697 143.285L192.127 149.46L205.04 161.811C205.458 162.177 205.772 162.648 205.981 163.119C207.34 165.683 206.138 169.085 203.158 170.027Z" fill="#BBCBFF"/>
<path d="M184.076 162.91C184.703 162.439 184.755 161.549 184.128 160.973L176.861 154.746L155.113 162.282C152.029 163.381 148.578 162.596 146.173 160.345L143.402 157.676C141.834 156.159 141.939 153.699 143.35 152.286C144.709 154.275 149.415 158.88 152.499 158.985C155.479 159.089 177.384 151.292 177.384 151.292C177.384 151.292 186.951 159.456 187.317 159.874C188.31 160.921 185.749 162.491 184.076 162.91Z" fill="#99ADF9"/>
<path d="M218.842 140.197L192.127 149.46L189.304 146.844C189.304 146.844 215.548 137.319 218.946 136.377C219.417 136.273 219.835 136.168 220.253 136.063C221.194 137.529 220.619 139.569 218.842 140.197Z" fill="#99ADF9"/>
<path d="M203.158 170.027L173.254 179.603C170.483 180.493 167.451 179.865 165.255 177.929L162.485 175.469C160.968 174.161 160.864 172.015 161.857 170.55C164.21 172.172 169.019 175.522 170.222 175.836C171.79 176.202 178.221 174.109 185.226 171.597C192.232 169.085 203.733 164.427 206.033 163.171C207.34 165.683 206.138 169.085 203.158 170.027Z" fill="#99ADF9"/>
<path d="M207.288 95.7676C206.295 92.68 203.681 89.9064 198.714 87.4991C183.24 79.9633 166.458 95.3489 156.472 106.129C151.454 111.572 148.265 116.491 147.533 120.782C146.801 125.021 148.474 128.58 153.231 131.196C171.529 141.349 187.474 128.056 197.355 117.276C203.942 109.897 209.379 102.257 207.288 95.7676ZM185.54 109.636C176.391 117.852 168.34 124.969 161.909 121.253C161.387 120.939 161.021 120.573 160.812 120.102C159.766 117.695 163.269 113.194 171.477 106.339C181.253 98.1225 186.951 93.7266 191.97 95.6106C193.225 96.0816 194.009 96.6572 194.323 97.3899C195.421 99.6401 192.441 103.408 185.54 109.636Z" fill="#BBCBFF"/>
<path d="M197.25 117.224C187.37 128.056 171.424 141.349 153.127 131.144C148.369 128.527 146.696 124.969 147.428 120.73C148.892 123.608 151.924 127.376 158.198 129.103C169.019 132.086 180.103 129.26 191.552 118.166C201.59 108.38 204.988 101.001 207.236 95.7676C209.379 102.257 203.942 109.897 197.25 117.224Z" fill="#99ADF9"/>
<path d="M194.323 97.3375C193.957 96.6049 193.172 96.0292 191.97 95.5583C186.951 93.6743 181.253 98.0702 171.477 106.286C163.269 113.194 159.766 117.642 160.812 120.05C160.289 119.631 159.714 118.846 159.505 117.171C159.139 114.031 161.073 110.996 166.719 105.763C172.365 100.53 180.469 93.8836 185.435 92.837C190.349 91.8427 193.8 94.4069 194.27 96.4479C194.323 96.7619 194.323 97.0236 194.323 97.3375Z" fill="#99ADF9"/>
<path d="M163.791 79.6493L159.086 81.8472C156.368 83.1032 153.074 81.8996 151.872 79.126L126.987 22.2934C126.255 20.5665 126.621 18.6302 127.823 17.3219C128.241 16.8509 128.764 16.4846 129.339 16.2229L135.299 13.554C137.652 12.5073 140.37 13.554 141.416 15.9089L166.458 72.5845C166.719 73.1078 166.824 73.6834 166.876 74.2591C167.085 76.457 165.935 78.655 163.791 79.6493Z" fill="#BBCBFF"/>
<path d="M178.9 36.6847L155.322 47.3081L150.303 49.5584L142.043 37.9407L161.073 29.3059C161.334 29.2013 161.544 29.0443 161.753 28.8349C162.589 28.05 162.746 26.6893 161.962 25.695L152.395 13.6063C150.879 11.67 151.088 9.05344 152.551 7.32648C153.022 6.75083 153.649 6.33217 154.381 6.01818L158.25 4.50056C160.237 3.71558 162.537 4.29122 163.896 6.01818L181.096 27.736C181.305 27.9976 181.462 28.2593 181.619 28.5733C183.187 31.5039 182.037 35.2194 178.9 36.6847Z" fill="#BBCBFF"/>
<path d="M178.9 36.6847L155.322 47.3081L153.336 43.1216C153.336 43.1216 173.045 35.1148 178.116 32.1842C179.998 31.0852 181.044 29.7769 181.619 28.5733C183.187 31.5039 182.037 35.2194 178.9 36.6847Z" fill="#99ADF9"/>
<path d="M163.791 79.6493L159.086 81.8472C156.368 83.1032 153.074 81.8996 151.872 79.126L126.987 22.2934C126.255 20.5665 126.621 18.6302 127.823 17.3219C132.842 28.4163 155.008 77.399 155.27 78.0793C155.583 78.8643 155.688 79.3876 157.936 78.3933C160.027 77.4513 165.098 75.5674 166.928 74.2591C167.085 76.457 165.935 78.655 163.791 79.6493Z" fill="#99ADF9"/>
<path d="M161.7 28.8873C162.537 28.1023 162.694 26.7417 161.909 25.7473L152.342 13.6587C150.826 11.7224 151.035 9.10577 152.499 7.37881C154.538 10.0477 164.785 23.3401 165.726 25.067C166.458 26.323 163.687 27.9453 161.7 28.8873Z" fill="#99ADF9"/>
<path d="M63.8854 27.2126C65.4157 27.2126 66.6562 25.9709 66.6562 24.439C66.6562 22.9072 65.4157 21.6654 63.8854 21.6654C62.3552 21.6654 61.1146 22.9072 61.1146 24.439C61.1146 25.9709 62.3552 27.2126 63.8854 27.2126Z" fill="#BBCBFF"/>
<path d="M63.8854 16.38C65.4157 16.38 66.6562 15.1382 66.6562 13.6064C66.6562 12.0745 65.4157 10.8328 63.8854 10.8328C62.3552 10.8328 61.1146 12.0745 61.1146 13.6064C61.1146 15.1382 62.3552 16.38 63.8854 16.38Z" fill="#BBCBFF"/>
<path d="M63.8856 5.5472C65.4158 5.5472 66.6564 4.30541 66.6564 2.7736C66.6564 1.24178 65.4158 0 63.8856 0C62.3553 0 61.1147 1.24178 61.1147 2.7736C61.1147 4.30541 62.3553 5.5472 63.8856 5.5472Z" fill="#BBCBFF"/>
</svg>
