<svg width="264" height="133" viewBox="0 0 264 133" fill="none" xmlns="http://www.w3.org/2000/svg">
<path d="M4.67163 122.597C-7.38689 109.862 5.51248 75.793 24.9629 54.9582C48.6149 29.6272 81.2216 8.31933 144.248 15.5653C196.291 21.5513 228.603 47.7988 239.594 61.32C257.07 82.8091 269.697 113.128 259.171 125.668C241.508 146.717 168.53 110.903 128.945 110.173C89.3597 109.443 31.5978 150.986 4.67163 122.597Z" fill="#E1ECFF"/>
<path d="M191.692 102.251H54.3171L25.4226 7.79209C25.1462 6.88992 25.0855 5.93544 25.2453 5.00551C25.4052 4.07557 25.7812 3.19617 26.343 2.4381C26.9049 1.68003 27.6369 1.06448 28.4801 0.641013C29.3233 0.217543 30.2542 -0.00201679 31.1977 1.39597e-05H155.952C157.243 -0.000243039 158.501 0.414178 159.539 1.18225C160.577 1.95032 161.341 3.03145 161.719 4.26646L191.692 102.251Z" fill="#FF97C9"/>
<path d="M169.195 91.0066H70.6395C69.3363 91.0066 68.0675 90.5884 67.0197 89.8136C65.9719 89.0388 65.2003 87.9483 64.8184 86.7023L42.9373 15.1678C42.7981 14.7139 42.7674 14.2336 42.8476 13.7656C42.9278 13.2977 43.1168 12.8551 43.3992 12.4735C43.6817 12.0919 44.0498 11.7819 44.4739 11.5684C44.898 11.355 45.3663 11.2441 45.8411 11.2447H144.396C145.7 11.2448 146.968 11.6629 148.016 12.4377C149.064 13.2125 149.836 14.3031 150.218 15.549L172.099 87.0836C172.238 87.5375 172.269 88.0177 172.188 88.4857C172.108 88.9537 171.919 89.3962 171.637 89.7779C171.354 90.1595 170.986 90.4695 170.562 90.6829C170.138 90.8963 169.67 91.0072 169.195 91.0066Z" fill="#1C3177"/>
<path d="M54.3171 102.251H238.842C240.087 102.251 241.281 102.746 242.161 103.626C243.041 104.506 243.536 105.7 243.536 106.945V113.215C243.536 114.46 243.041 115.654 242.161 116.534C241.281 117.414 240.087 117.909 238.842 117.909H59.0108C58.3944 117.909 57.7841 117.787 57.2146 117.551C56.6451 117.315 56.1277 116.97 55.6919 116.534C55.256 116.098 54.9103 115.581 54.6744 115.011C54.4385 114.442 54.3171 113.831 54.3171 113.215V102.251Z" fill="#F774B9"/>
<path d="M76.8064 54.5715L88.0295 42.0453" stroke="#99ADF9" stroke-width="18" stroke-miterlimit="10" stroke-linecap="round"/>
<path d="M90.6792 54.5715L73.7783 42.0453" stroke="#99ADF9" stroke-width="18" stroke-miterlimit="10" stroke-linecap="round"/>
<path d="M132.227 54.5715L143.45 42.0453" stroke="#99ADF9" stroke-width="18" stroke-miterlimit="10" stroke-linecap="round"/>
<path d="M146.1 54.5715L129.196 42.0453" stroke="#99ADF9" stroke-width="18" stroke-miterlimit="10" stroke-linecap="round"/>
<path d="M104.487 62.488C104.487 62.488 113.285 57.6376 122.221 62.488" stroke="#99ADF9" stroke-width="18" stroke-miterlimit="10" stroke-linecap="round"/>
<path d="M200.568 47.7042C199.551 47.7015 198.566 47.3517 197.775 46.7125C196.984 46.0733 196.434 45.1831 196.218 44.1893C195.391 40.4609 194.866 37.6139 195.596 34.9508C196.472 31.7929 198.784 29.9435 201.274 28.1753C202.953 26.9857 204.118 25.1796 204.248 23.579C204.329 22.5165 203.956 21.6215 203.072 20.7672C200.46 18.2338 196.232 22.1758 196.043 22.3461C196.043 22.3461 192.49 25.3526 189.851 22.2001C187.212 19.0476 189.851 15.9221 189.851 15.9221C191.553 14.3417 193.512 13.0618 195.642 12.1369C200.723 9.97398 205.562 10.7851 209.272 14.3675C212.046 17.055 213.416 20.5725 213.133 24.2712C212.805 28.5376 210.299 32.7256 206.425 35.4672C204.605 36.7569 204.262 37.2138 204.178 37.3598C203.97 38.0195 204.656 41.1098 204.916 42.2751C205.059 42.9265 205.055 43.6017 204.903 44.2512C204.752 44.9007 204.457 45.508 204.04 46.0286C203.623 46.5492 203.095 46.9699 202.494 47.2598C201.893 47.5497 201.235 47.7016 200.568 47.7042Z" fill="#FEC272"/>
<path d="M202.718 63.1747C205.575 63.1747 207.89 60.8591 207.89 58.0026C207.89 55.1461 205.575 52.8304 202.718 52.8304C199.862 52.8304 197.546 55.1461 197.546 58.0026C197.546 60.8591 199.862 63.1747 202.718 63.1747Z" fill="#FEC272"/>
</svg>
