<svg width="221" height="180" viewBox="0 0 221 180" fill="none" xmlns="http://www.w3.org/2000/svg">
<path d="M149.356 125.911H143.756C144.855 124.393 145.535 122.3 145.535 120.05C145.535 115.287 142.605 111.467 138.941 111.467H6.59383C2.93059 111.467 0 115.34 0 120.05C0 124.812 2.93059 128.632 6.59383 128.632H10.3617C10.9374 128.632 11.4607 128.789 11.8794 129.051C10.9374 130.516 10.3617 132.452 10.3617 134.493C10.3617 139.255 13.2923 143.076 16.9556 143.076H20.7235C22.8168 143.076 24.4914 145.326 24.4914 148.1V148.152C24.4914 152.914 27.422 156.734 31.0852 156.734H125.126C128.789 156.734 131.72 152.862 131.72 148.152V148.1C131.72 145.378 133.394 143.076 135.488 143.076H149.356C153.019 143.076 155.949 139.203 155.949 134.493C155.949 129.731 153.019 125.911 149.356 125.911Z" fill="#E1ECFF"/>
<path d="M139.831 79.1783L69.3399 52.3843L68.3456 101.472L130.725 130.673C132.348 131.458 134.232 130.359 134.441 128.58L139.831 79.1783Z" fill="#FC7EC1"/>
<path d="M28.678 118.532L68.3456 101.472L69.3399 52.3843L22.0841 72.4798L24.9101 116.229C25.0671 118.113 26.951 119.265 28.678 118.532Z" fill="#F969BB"/>
<path d="M69.3399 52.3843H54.9486C52.2273 52.3843 49.5584 52.96 47.0988 54.059L7.79747 71.4332C6.75083 71.9042 7.11715 73.4741 8.26846 73.3695L22.0318 72.4798L69.3399 52.3843Z" fill="#FF97C9"/>
<path d="M69.3399 52.3843L139.831 79.1783H147.419C148.309 79.1783 148.518 77.9223 147.681 77.6083L81.5856 53.1693C80.225 52.646 78.7597 52.3843 77.2944 52.3843H69.3399Z" fill="#FF97C9"/>
<path d="M86.2954 113.037L81.1146 127.847C81.1146 127.847 71.3808 117.956 63.1647 100.948C61.0714 96.6572 60.2864 92.1043 60.2341 87.7608C60.0771 76.8234 64.8916 67.2466 67.0373 67.0373C69.2875 66.828 66.3569 75.7767 67.1419 84.7778C67.4036 87.7607 68.0316 90.6913 69.3922 93.3603C76.4047 107.124 86.2954 113.037 86.2954 113.037Z" fill="#FF8D76"/>
<path d="M67.0896 84.7778C65.4673 85.7722 62.6937 87.2375 60.1818 87.7084C60.0248 76.7711 64.8393 67.1943 66.9849 66.985C69.2352 66.828 66.357 75.7767 67.0896 84.7778Z" fill="#FFD3B3"/>
<path d="M120.416 117.485C119.997 128.109 111.677 137.11 100.582 138.68C98.7505 138.941 96.8142 139.098 94.721 139.098C92.68 139.098 90.8484 139.046 89.1214 138.837C78.7074 137.738 70.4912 129.888 69.2353 120.05C68.0316 110.525 67.1943 96.2909 71.0146 86.6618C71.9565 84.2545 73.2648 82.2136 74.7825 80.4343C80.0157 74.4684 87.8655 72.3228 94.0406 72.2182C100.268 72.1135 109.008 73.6835 114.555 79.754C117.119 82.5276 119.003 86.2431 119.683 91.2147C120.782 99.4308 120.73 109.636 120.416 117.485Z" fill="#FEA691"/>
<path d="M93.936 129.103C103.984 129.26 111.206 125.021 111.886 114.241C112.566 103.46 114.136 86.0338 94.721 85.6152C75.3058 85.1965 77.3467 104.769 77.1897 112.095C77.0327 119.422 81.5333 128.894 93.936 129.103Z" fill="#FFD3B3"/>
<path d="M114.502 79.8063C109.165 82.5276 101.89 84.2545 93.8836 84.2545C86.5571 84.2545 79.8586 82.8415 74.7301 80.5389C79.9633 74.5731 87.8131 72.4275 93.9883 72.3228C100.216 72.1658 108.955 73.7358 114.502 79.8063Z" fill="#FF8D76"/>
<path d="M22.0841 72.4798L24.91 116.125C25.067 118.584 26.48 120.782 28.6779 121.934L89.6971 154.222L90.639 101.576L22.0841 72.4798Z" fill="#FF97C9"/>
<path d="M23.8634 100.059L73.8928 124.445C76.5094 125.701 79.597 124.916 81.2716 122.562L90.5867 109.269V101.576L22.0318 72.4798L23.8634 100.059Z" fill="#FC7EC1"/>
<path d="M15.0193 91.8427L74.5208 119.893C76.2477 120.73 78.2887 120.154 79.3877 118.532L90.6914 101.576L22.1364 72.4798L13.4493 86.2955C12.141 88.2841 12.926 90.8484 15.0193 91.8427Z" fill="#FF97C9"/>
<path d="M129.888 134.336L89.697 154.222L90.639 101.576L139.831 79.1783L134.546 127.69C134.232 130.568 132.452 133.028 129.888 134.336Z" fill="#FC7EC1"/>
<path d="M90.639 109.269L96.1862 121.306C97.5469 124.236 101.053 125.44 103.931 124.027L136.796 107.438L139.883 79.2306L90.6914 101.629V109.269H90.639Z" fill="#F969BB"/>
<path d="M100.216 118.532L90.639 101.576L139.831 79.1783L148.78 94.1976C149.67 95.6629 149.094 97.5992 147.576 98.3318L104.088 119.683C102.675 120.364 101.001 119.84 100.216 118.532Z" fill="#FF97C9"/>
<path d="M151.24 50.5004C151.135 52.5937 148.78 64.5777 137.005 74.6778C126.015 84.0975 111.153 91.267 111.153 91.267L110.316 69.1829C110.316 69.1829 123.818 65.2057 131.72 58.3502C139.622 51.4947 142.395 44.7439 144.384 43.9066C145.221 43.5402 145.954 43.5926 146.477 43.6972C147.21 43.8542 147.629 44.2729 147.629 44.2729C147.629 44.2729 147.681 44.2729 147.786 44.2206C148.152 44.1159 149.042 44.0112 149.879 44.9532C150.455 45.5812 150.298 47.4128 150.298 47.4128C150.298 47.4128 150.926 48.0408 151.083 49.3491C151.24 49.7154 151.292 50.0817 151.24 50.5004Z" fill="#FEA691"/>
<path d="M140.624 60.0632C142.389 61.1102 144.871 60.1857 146.169 57.9984C147.466 55.8111 147.088 53.1892 145.323 52.1422C143.558 51.0953 141.076 52.0197 139.778 54.207C138.48 56.3944 138.859 59.0162 140.624 60.0632Z" fill="#FFD3B3"/>
<path d="M147.89 44.2729C147.786 44.7439 147.576 45.5288 147.105 46.6801C146.268 48.6688 145.64 49.5584 145.326 49.6631C144.541 49.9771 144.436 48.8781 145.221 47.3605C145.797 46.1568 146.32 44.4299 146.53 43.7496C147.262 43.9066 147.681 44.3252 147.681 44.3252C147.681 44.3252 147.786 44.2729 147.89 44.2729Z" fill="#FF8D76"/>
<path d="M151.239 49.4014C151.135 49.6107 151.082 49.8201 150.978 50.0817C150.088 52.0703 149.408 52.9077 149.094 53.0123C148.309 53.274 148.257 52.2273 149.042 50.7097C149.879 49.1921 150.454 47.4651 150.454 47.4651C150.454 47.4651 151.03 48.0931 151.239 49.4014Z" fill="#FF8D76"/>
<path d="M111.781 91.0577C111.519 91.0577 111.258 90.9007 111.153 90.639C110.996 90.2727 111.153 89.854 111.519 89.697C111.624 89.6447 124.131 84.2022 134.755 75.4628C148.204 64.4207 149.879 53.3263 149.879 53.2217C149.931 52.8553 150.297 52.5413 150.664 52.5937C151.03 52.646 151.344 53.0123 151.292 53.3787C151.239 53.8496 149.565 65.0487 135.645 76.5094C124.864 85.3535 112.252 90.9007 112.095 90.953C111.99 91.0053 111.886 91.0577 111.781 91.0577Z" fill="#FF8D76"/>
<path d="M99.7448 27.265C99.7448 27.265 104.978 15.3856 108.066 14.81C111.101 14.2343 112.671 21.7178 113.927 27.9453C115.235 34.1728 115.549 39.3537 115.549 39.3537L99.7448 27.265Z" fill="#FEA691"/>
<path d="M102.466 27.2126C102.466 27.2126 105.92 19.4675 107.909 19.1012C109.897 18.7349 110.892 23.6541 111.729 27.6836C112.566 31.7655 112.828 35.1148 112.828 35.1148L102.466 27.2126Z" fill="#FFD3B3"/>
<path d="M88.6504 27.265C88.6504 27.265 83.4172 15.3856 80.3296 14.81C77.2944 14.2343 75.7244 21.7178 74.4684 27.9453C73.2125 34.1728 72.8462 39.3537 72.8462 39.3537L88.6504 27.265Z" fill="#FEA691"/>
<path d="M85.9292 27.2126C85.9292 27.2126 82.4752 19.4675 80.4866 19.1012C78.498 18.7349 77.5037 23.6541 76.6664 27.6836C75.8291 31.7655 75.5674 35.1148 75.5674 35.1148L85.9292 27.2126Z" fill="#FFD3B3"/>
<path d="M117.067 59.9201L103.356 59.5538L83.5219 59.0305L70.8052 58.7165C70.8052 58.7165 70.2296 40.8713 75.4104 32.2888C78.1317 27.736 83.2079 24.5437 88.8074 23.2354C91.6334 22.5551 94.6163 22.3458 97.4945 22.7121C101.262 23.1831 104.873 24.596 107.699 27.108C116.857 35.2194 115.915 42.7553 116.491 48.9828C117.067 55.2103 117.067 59.9201 117.067 59.9201Z" fill="#FEA691"/>
<path d="M103.356 59.5538L83.5219 59.0305C84.5685 56.3616 86.4001 50.8144 87.4468 43.2786C88.4934 35.9521 88.7028 27.7883 88.7551 23.2354C91.581 22.5551 94.5639 22.3458 97.4422 22.7121C97.4945 26.951 97.8085 34.3298 99.0645 42.5982C100.477 51.8087 102.414 57.2512 103.356 59.5538Z" fill="#FFD3B3"/>
<path d="M118.951 65.101C118.951 73.7358 107.752 80.7483 93.936 80.7483C80.1203 80.7483 68.9213 73.7358 68.9213 65.101C68.9213 54.3729 80.1203 49.4537 93.936 49.4537C107.752 49.4537 118.951 54.8963 118.951 65.101Z" fill="#FFD3B3"/>
<path d="M87.6561 55.5243C89.0168 53.588 99.1168 52.9077 100.53 55.0533C101.943 57.1465 98.2272 61.6994 94.6163 61.6994C91.0054 61.6994 85.8245 58.0885 87.6561 55.5243Z" fill="#413F4C"/>
<path d="M76.4571 31.7655C76.3001 31.7655 76.1431 31.7132 76.0384 31.6085C75.7244 31.3992 75.6721 30.9282 75.8814 30.6142C75.9338 30.5096 77.6607 28.2593 80.6436 26.323C84.2022 23.9681 86.0338 23.4971 86.0862 23.4971C86.4525 23.3924 86.8711 23.6017 86.9235 24.0204C87.0281 24.3867 86.8188 24.8054 86.4002 24.8577C86.4002 24.8577 84.6732 25.3287 81.3763 27.5266C78.6027 29.3583 76.9281 31.5039 76.9281 31.5039C76.8757 31.6609 76.6664 31.7655 76.4571 31.7655Z" fill="#FF8D76"/>
<path d="M110.996 31.7655C111.153 31.7655 111.31 31.7132 111.415 31.6085C111.729 31.3992 111.781 30.9282 111.572 30.6142C111.519 30.5096 109.793 28.2593 106.81 26.323C103.251 23.9681 101.419 23.4971 101.367 23.4971C101.001 23.3924 100.582 23.6017 100.53 24.0204C100.425 24.3867 100.634 24.8054 101.053 24.8577C101.053 24.8577 102.78 25.3287 106.077 27.5266C108.851 29.3583 110.525 31.5039 110.525 31.5039C110.578 31.6609 110.787 31.7655 110.996 31.7655Z" fill="#FF8D76"/>
<path d="M88.9644 69.3399C88.9644 69.3399 92.994 68.9212 94.9303 65.7813C97.2329 68.9736 100.582 68.2409 100.582 68.2409C100.582 68.2409 101.262 74.5208 95.5582 74.9917C89.5401 75.5151 88.9644 69.3399 88.9644 69.3399Z" fill="#FF6EA9"/>
<path d="M94.8779 72.9508C94.4592 72.8985 94.0929 72.5322 94.1452 72.1135C94.1976 70.0202 94.0406 66.3047 94.0406 66.2523C94.0406 65.7813 94.3545 65.415 94.8255 65.415C95.2442 65.415 95.6629 65.729 95.6629 66.2C95.6629 66.357 95.8199 70.0726 95.7675 72.2182C95.7152 72.5845 95.3489 72.9508 94.8779 72.9508C94.8779 72.9508 94.9302 72.9508 94.8779 72.9508Z" fill="#EA4E95"/>
<path d="M88.3364 70.1772C85.8768 70.1772 83.9928 69.2876 83.9405 69.2352C83.4695 69.0259 83.3125 68.4503 83.5218 67.9793C83.7312 67.5083 84.3068 67.3513 84.7778 67.5606C84.9871 67.6653 90.4297 70.2819 94.1976 65.258C94.3546 64.9963 94.6686 64.8917 94.9302 64.8917C95.2442 64.8917 95.5059 65.0487 95.6629 65.3103C98.1748 68.9212 103.251 67.0896 103.46 67.0373C103.931 66.8803 104.455 67.0896 104.664 67.5606C104.821 68.0316 104.612 68.5549 104.141 68.7642C102.047 69.5492 97.7038 70.1249 94.9302 67.299C92.7846 69.5492 90.3773 70.1772 88.3364 70.1772Z" fill="#413F4C"/>
<path d="M104.926 48.4594C106.197 48.4594 107.228 47.2411 107.228 45.7382C107.228 44.2353 106.197 43.0169 104.926 43.0169C103.654 43.0169 102.623 44.2353 102.623 45.7382C102.623 47.2411 103.654 48.4594 104.926 48.4594Z" fill="#413F4C"/>
<path d="M81.6902 48.4594C82.9619 48.4594 83.9929 47.2411 83.9929 45.7382C83.9929 44.2353 82.9619 43.0169 81.6902 43.0169C80.4185 43.0169 79.3876 44.2353 79.3876 45.7382C79.3876 47.2411 80.4185 48.4594 81.6902 48.4594Z" fill="#413F4C"/>
<path d="M101.053 37.365C101.472 35.9521 103.984 36.1091 105.815 36.7371C107.647 37.365 109.112 38.5687 108.694 39.3013C108.275 40.0863 100.216 40.0863 101.053 37.365Z" fill="#FFD3B3"/>
<path d="M84.6732 37.3127C84.2022 35.8998 81.6902 36.1091 79.8586 36.7894C78.027 37.4697 76.614 38.6734 77.085 39.406C77.556 40.1387 85.6152 39.9817 84.6732 37.3127Z" fill="#FFD3B3"/>
<path d="M219.062 140.197L192.32 149.46L179.97 153.751L176.987 154.798L155.217 162.334C152.129 163.433 148.675 162.648 146.268 160.398L143.494 157.729C141.924 156.211 142.029 153.751 143.442 152.338C143.808 151.972 144.279 151.658 144.803 151.501L208.543 129.312C210.427 128.684 212.468 129.051 213.933 130.359L219.847 135.488C220.056 135.645 220.213 135.854 220.37 136.063C221.417 137.528 220.841 139.569 219.062 140.197Z" fill="#BBCBFF"/>
<path d="M203.362 170.027L173.428 179.603C170.655 180.493 167.619 179.865 165.421 177.929L162.648 175.469C161.13 174.161 161.026 172.015 162.02 170.55C162.491 169.87 163.171 169.346 164.008 169.085L183.842 163.119C183.999 163.067 184.104 163.014 184.209 162.909C184.837 162.439 184.889 161.549 184.261 160.973L176.987 154.746L174.632 152.757L174.213 152.391C171.911 150.454 172.748 146.687 175.678 145.954L185.883 143.285L192.32 149.46L205.246 161.811C205.665 162.177 205.979 162.648 206.188 163.119C207.549 165.683 206.345 169.085 203.362 170.027Z" fill="#BBCBFF"/>
<path d="M184.261 162.91C184.889 162.439 184.941 161.549 184.313 160.973L177.039 154.746L155.269 162.282C152.181 163.381 148.728 162.596 146.32 160.345L143.547 157.676C141.977 156.159 142.081 153.699 143.494 152.286C144.855 154.275 149.565 158.88 152.652 158.985C155.635 159.089 177.562 151.292 177.562 151.292C177.562 151.292 187.139 159.456 187.506 159.874C188.5 160.921 185.936 162.491 184.261 162.91Z" fill="#99ADF9"/>
<path d="M219.062 140.197L192.32 149.46L189.494 146.844C189.494 146.844 215.765 137.319 219.166 136.377C219.637 136.273 220.056 136.168 220.475 136.063C221.417 137.528 220.841 139.569 219.062 140.197Z" fill="#99ADF9"/>
<path d="M203.362 170.027L173.428 179.603C170.655 180.493 167.619 179.865 165.421 177.929L162.648 175.469C161.13 174.161 161.026 172.015 162.02 170.55C164.375 172.172 169.189 175.522 170.393 175.836C171.963 176.202 178.4 174.109 185.412 171.597C192.425 169.085 203.938 164.427 206.24 163.171C207.549 165.683 206.345 169.085 203.362 170.027Z" fill="#99ADF9"/>
<path d="M207.496 95.7676C206.502 92.68 203.885 89.9064 198.914 87.4991C183.424 79.9633 166.625 95.3489 156.63 106.129C151.606 111.572 148.414 116.491 147.681 120.782C146.948 125.021 148.623 128.58 153.385 131.196C171.701 141.349 187.663 128.056 197.553 117.276C204.147 109.897 209.59 102.257 207.496 95.7676ZM185.726 109.636C176.568 117.852 168.509 124.969 162.072 121.253C161.549 120.939 161.183 120.573 160.973 120.102C159.927 117.695 163.433 113.194 171.649 106.339C181.435 98.1225 187.139 93.7266 192.163 95.6106C193.419 96.0816 194.204 96.6572 194.518 97.3899C195.617 99.6401 192.634 103.408 185.726 109.636Z" fill="#BBCBFF"/>
<path d="M197.449 117.224C187.558 128.056 171.597 141.349 153.28 131.144C148.518 128.527 146.844 124.969 147.576 120.73C149.042 123.608 152.077 127.376 158.357 129.103C169.189 132.086 180.284 129.26 191.744 118.166C201.792 108.38 205.194 101.001 207.444 95.7675C209.59 102.257 204.147 109.897 197.449 117.224Z" fill="#99ADF9"/>
<path d="M194.518 97.3375C194.152 96.6049 193.367 96.0292 192.163 95.5582C187.139 93.6743 181.435 98.0702 171.649 106.286C163.433 113.194 159.927 117.642 160.973 120.05C160.45 119.631 159.874 118.846 159.665 117.171C159.299 114.031 161.235 110.996 166.887 105.763C172.539 100.53 180.65 93.8836 185.622 92.837C190.541 91.8427 193.995 94.4069 194.466 96.4479C194.518 96.7619 194.518 97.0235 194.518 97.3375Z" fill="#99ADF9"/>
<path d="M163.956 79.6493L159.246 81.8472C156.525 83.1032 153.228 81.8996 152.024 79.126L127.114 22.2934C126.382 20.5665 126.748 18.6302 127.952 17.3219C128.37 16.8509 128.894 16.4846 129.469 16.2229L135.435 13.554C137.79 12.5074 140.511 13.554 141.558 15.9089L166.625 72.5845C166.887 73.1078 166.991 73.6835 167.044 74.2591C167.253 76.4571 166.102 78.655 163.956 79.6493Z" fill="#BBCBFF"/>
<path d="M179.08 36.6847L155.478 47.3081L150.455 49.5584L142.186 37.9407L161.235 29.3059C161.497 29.2013 161.706 29.0443 161.915 28.8349C162.753 28.05 162.91 26.6893 162.125 25.695L152.548 13.6063C151.03 11.67 151.24 9.05344 152.705 7.32648C153.176 6.75083 153.804 6.33217 154.536 6.01818L158.409 4.50056C160.398 3.71558 162.7 4.29122 164.061 6.01818L181.278 27.736C181.487 27.9976 181.644 28.2593 181.801 28.5733C183.371 31.5039 182.22 35.2194 179.08 36.6847Z" fill="#BBCBFF"/>
<path d="M179.08 36.6847L155.478 47.3081L153.49 43.1216C153.49 43.1216 173.219 35.1148 178.295 32.1842C180.179 31.0852 181.226 29.7769 181.801 28.5733C183.371 31.5039 182.22 35.2194 179.08 36.6847Z" fill="#99ADF9"/>
<path d="M163.956 79.6493L159.246 81.8472C156.525 83.1032 153.228 81.8996 152.024 79.126L127.114 22.2934C126.382 20.5665 126.748 18.6302 127.952 17.3219C132.976 28.4163 155.164 77.399 155.426 78.0793C155.74 78.8643 155.845 79.3876 158.095 78.3933C160.188 77.4514 165.264 75.5674 167.096 74.2591C167.253 76.457 166.102 78.655 163.956 79.6493Z" fill="#99ADF9"/>
<path d="M161.863 28.8873C162.7 28.1023 162.857 26.7417 162.072 25.7473L152.495 13.6587C150.978 11.7224 151.187 9.10577 152.652 7.37882C154.693 10.0478 164.95 23.3401 165.892 25.067C166.625 26.323 163.851 27.9453 161.863 28.8873Z" fill="#99ADF9"/>
<path d="M63.9497 27.2126C65.4815 27.2126 66.7233 25.9709 66.7233 24.439C66.7233 22.9072 65.4815 21.6654 63.9497 21.6654C62.4179 21.6654 61.1761 22.9072 61.1761 24.439C61.1761 25.9709 62.4179 27.2126 63.9497 27.2126Z" fill="#BBCBFF"/>
<path d="M63.9497 16.3799C65.4815 16.3799 66.7233 15.1381 66.7233 13.6063C66.7233 12.0745 65.4815 10.8327 63.9497 10.8327C62.4179 10.8327 61.1761 12.0745 61.1761 13.6063C61.1761 15.1381 62.4179 16.3799 63.9497 16.3799Z" fill="#BBCBFF"/>
<path d="M63.9497 5.5472C65.4815 5.5472 66.7233 4.30541 66.7233 2.7736C66.7233 1.24178 65.4815 0 63.9497 0C62.4179 0 61.1761 1.24178 61.1761 2.7736C61.1761 4.30541 62.4179 5.5472 63.9497 5.5472Z" fill="#BBCBFF"/>
</svg>
