<svg width="20" height="20" viewBox="0 0 20 20" fill="none" xmlns="http://www.w3.org/2000/svg">
<g clip-path="url(#clip0_201_644)">
<path d="M5.83331 11.6667C5.83331 11.2064 6.20641 10.8333 6.66665 10.8333C7.12689 10.8333 7.49998 11.2064 7.49998 11.6667C7.49998 12.1269 7.12689 12.5 6.66665 12.5C6.20641 12.5 5.83331 12.1269 5.83331 11.6667Z" fill="#A8A8A8"/>
<path d="M6.66665 14.1667C6.20641 14.1667 5.83331 14.5397 5.83331 15C5.83331 15.4602 6.20641 15.8333 6.66665 15.8333C7.12689 15.8333 7.49998 15.4602 7.49998 15C7.49998 14.5397 7.12689 14.1667 6.66665 14.1667Z" fill="#A8A8A8"/>
<path d="M9.16669 11.6667C9.16669 11.2064 9.53977 10.8333 10 10.8333C10.4603 10.8333 10.8334 11.2064 10.8334 11.6667C10.8334 12.1269 10.4603 12.5 10 12.5C9.53977 12.5 9.16669 12.1269 9.16669 11.6667Z" fill="#A8A8A8"/>
<path d="M10 14.1667C9.53977 14.1667 9.16669 14.5397 9.16669 15C9.16669 15.4602 9.53977 15.8333 10 15.8333C10.4603 15.8333 10.8334 15.4602 10.8334 15C10.8334 14.5397 10.4603 14.1667 10 14.1667Z" fill="#A8A8A8"/>
<path d="M12.5 11.6667C12.5 11.2064 12.8731 10.8333 13.3333 10.8333C13.7936 10.8333 14.1667 11.2064 14.1667 11.6667C14.1667 12.1269 13.7936 12.5 13.3333 12.5C12.8731 12.5 12.5 12.1269 12.5 11.6667Z" fill="#A8A8A8"/>
<path d="M13.3333 14.1667C12.8731 14.1667 12.5 14.5397 12.5 15C12.5 15.4602 12.8731 15.8333 13.3333 15.8333C13.7936 15.8333 14.1667 15.4602 14.1667 15C14.1667 14.5397 13.7936 14.1667 13.3333 14.1667Z" fill="#A8A8A8"/>
<path fill-rule="evenodd" clip-rule="evenodd" d="M3.82001 0.909091C3.82001 0.407018 4.26773 0 4.82001 0C5.37229 0 5.82001 0.407018 5.82001 0.909091V1.81818H13.82V0.909091C13.82 0.407018 14.2677 0 14.82 0C15.3723 0 15.82 0.407018 15.82 0.909091V1.81818H16.82C18.4769 1.81818 19.82 3.03923 19.82 4.54545V17.2727C19.82 18.779 18.4769 20 16.82 20H2.82001C1.16316 20 -0.179993 18.779 -0.179993 17.2727V4.54545C-0.179993 3.03923 1.16316 1.81818 2.82001 1.81818H3.82001V0.909091ZM13.82 3.63636V4.54545C13.82 5.04753 14.2677 5.45455 14.82 5.45455C15.3723 5.45455 15.82 5.04753 15.82 4.54545V3.63636H16.82C17.3723 3.63636 17.82 4.04338 17.82 4.54545V7.27273H1.82001V4.54545C1.82001 4.04338 2.26773 3.63636 2.82001 3.63636H3.82001V4.54545C3.82001 5.04753 4.26773 5.45455 4.82001 5.45455C5.37229 5.45455 5.82001 5.04753 5.82001 4.54545V3.63636H13.82ZM1.82001 9.09091V17.2727C1.82001 17.7748 2.26773 18.1818 2.82001 18.1818H16.82C17.3723 18.1818 17.82 17.7748 17.82 17.2727V9.09091H1.82001Z" fill="#A8A8A8"/>
</g>
<defs>
<clipPath id="clip0_201_644">
<rect width="20" height="20" fill="white"/>
</clipPath>
</defs>
</svg>
